<?xml version="1.0" standalone="no"?>
<!DOCTYPE svg PUBLIC "-//W3C//DTD SVG 20010904//EN"
 "http://www.w3.org/TR/2001/REC-SVG-20010904/DTD/svg10.dtd">
<svg version="1.0" xmlns="http://www.w3.org/2000/svg"
 width="500.000000pt" height="500.000000pt" viewBox="0 0 500.000000 500.000000"
 preserveAspectRatio="xMidYMid meet">
<metadata>
Created by potrace 1.14, written by Peter Selinger 2001-2017
</metadata>
<g transform="translate(0.000000,500.000000) scale(0.100000,-0.100000)"
fill="#000000" stroke="none">
<path d="M663 3096 c-167 -53 -263 -221 -250 -441 13 -234 140 -366 351 -367
73 -1 84 2 156 40 83 42 100 42 100 -6 0 -14 5 -22 13 -20 8 3 13 42 15 136 2
111 0 132 -12 132 -10 0 -17 -15 -21 -47 -20 -140 -103 -213 -240 -213 -95 1
-163 51 -211 155 -69 150 -49 420 39 537 80 106 239 118 335 25 41 -39 56 -67
72 -134 7 -33 17 -53 26 -53 11 0 14 25 14 131 0 97 -3 130 -12 127 -7 -3 -16
-19 -20 -36 -10 -39 -22 -40 -71 -6 -79 53 -190 69 -284 40z"/>
<path d="M1413 3096 c-168 -55 -263 -221 -250 -441 8 -138 58 -251 122 -274
18 -6 37 -22 43 -35 22 -49 194 -76 290 -47 97 29 181 112 224 218 20 50 23
76 23 188 0 112 -3 138 -23 187 -31 77 -107 159 -174 188 -65 29 -192 37 -255
16z m204 -38 c85 -56 133 -167 140 -328 12 -245 -88 -424 -236 -424 -99 1
-182 78 -223 209 -18 56 -23 94 -23 185 0 185 52 311 150 368 54 31 137 27
192 -10z"/>
<path d="M4251 3096 c-83 -27 -131 -95 -131 -183 1 -97 44 -152 195 -248 146
-93 175 -128 175 -212 0 -92 -53 -143 -147 -143 -111 0 -165 61 -198 223 -3
15 -10 27 -15 27 -6 0 -11 -49 -11 -120 -1 -66 -2 -125 -3 -132 -2 -23 22 -18
28 7 8 31 16 31 82 -1 43 -21 68 -26 127 -26 111 0 190 42 223 119 19 43 18
137 -2 178 -22 47 -94 112 -189 170 -123 75 -152 101 -171 151 -14 37 -15 51
-5 84 31 103 169 130 248 48 33 -34 63 -103 63 -144 0 -14 6 -24 14 -24 12 0
15 23 18 115 2 81 0 115 -8 115 -7 0 -15 -11 -18 -25 -8 -31 -15 -31 -75 1
-60 31 -140 39 -200 20z"/>
<path d="M2720 2978 c0 -89 3 -118 13 -118 8 0 17 26 24 70 16 105 59 140 168
140 l55 0 0 -339 c0 -195 -4 -351 -10 -365 -7 -19 -21 -28 -55 -37 -25 -6 -45
-15 -45 -20 0 -5 74 -9 165 -9 156 0 208 10 133 25 -62 12 -67 16 -78 53 -6
22 -10 172 -10 365 l0 327 58 -1 c113 -1 157 -36 169 -137 5 -49 17 -81 27
-72 2 3 6 56 7 118 l3 112 -312 3 -312 2 0 -117z"/>
<path d="M3657 2983 c-25 -65 -89 -228 -141 -363 -82 -211 -100 -249 -131
-276 -19 -17 -35 -34 -35 -38 0 -3 47 -6 105 -6 58 0 105 4 105 8 0 4 -19 14
-42 22 -41 14 -43 17 -46 58 -2 30 7 69 29 127 l32 85 137 0 137 0 36 -97 c48
-134 50 -142 37 -158 -6 -7 -25 -17 -41 -20 -65 -14 -22 -25 101 -25 130 0
157 8 106 31 -33 15 -39 28 -190 418 -73 190 -138 347 -143 348 -6 2 -31 -49
-56 -114z m77 -189 c31 -82 56 -155 56 -162 0 -9 -33 -12 -120 -12 -85 0 -120
3 -120 12 0 11 106 293 117 311 7 12 5 17 67 -149z"/>
<path d="M1960 3080 c0 -5 10 -10 23 -10 13 0 32 -6 43 -14 18 -14 19 -31 22
-343 2 -361 1 -371 -55 -385 -55 -14 -37 -28 36 -28 78 0 103 15 71 42 -28 24
-31 74 -28 392 l3 289 235 -363 c129 -200 241 -365 248 -368 9 -3 12 72 12
352 0 405 3 425 68 426 12 0 22 5 22 10 0 6 -44 10 -111 10 -71 0 -108 -4
-104 -10 3 -5 17 -10 29 -10 13 0 34 -9 47 -19 l24 -19 3 -274 c2 -248 1 -271
-13 -253 -9 11 -98 147 -198 302 l-182 282 -97 1 c-59 0 -98 -4 -98 -10z"/>
<path d="M1179 2355 c-103 -37 -184 -98 -194 -144 -4 -18 2 -47 16 -82 23 -60
26 -112 9 -164 -9 -28 -17 -35 -38 -36 -24 -2 -24 -2 -4 -6 26 -5 26 -3 8 -70
-8 -29 -11 -55 -6 -58 4 -3 16 27 25 65 10 41 22 70 30 70 25 0 135 90 180
147 58 74 115 186 115 228 0 60 -58 81 -141 50z m95 -5 c69 -26 2 -184 -135
-321 -57 -57 -119 -99 -119 -80 0 16 71 214 91 252 10 21 23 40 29 44 15 9 12
25 -4 19 -15 -6 -27 -29 -66 -127 l-27 -68 -22 50 c-31 73 -28 103 14 140 40
35 101 68 160 87 50 16 49 16 79 4z"/>
<path d="M2135 2318 c-27 -30 -66 -93 -93 -150 l-47 -97 -50 -1 c-59 0 -95 -9
-95 -22 0 -5 12 -26 28 -45 24 -32 27 -45 27 -110 0 -40 3 -73 6 -73 4 0 26
52 49 115 l42 115 94 0 c52 0 94 -4 94 -9 0 -5 -18 -62 -40 -127 -21 -65 -37
-120 -35 -123 8 -8 12 1 53 129 l41 125 50 5 c27 3 53 9 58 14 4 4 -16 5 -44
1 -62 -8 -61 -10 -37 91 45 198 -1 273 -101 162z m95 27 c16 -19 9 -109 -15
-212 l-17 -73 -36 1 c-20 1 -63 4 -95 8 l-58 6 52 104 c52 103 112 181 141
181 9 0 21 -7 28 -15z m-250 -301 c0 -4 -10 -34 -22 -67 l-22 -60 -22 50 c-12
28 -27 54 -33 57 -25 16 -8 26 44 26 30 0 55 -3 55 -6z"/>
<path d="M2160 2310 c0 -5 5 -10 10 -10 6 0 10 5 10 10 0 6 -4 10 -10 10 -5 0
-10 -4 -10 -10z"/>
<path d="M2459 2246 l-33 -46 -63 0 c-35 0 -63 -4 -63 -10 0 -6 26 -10 59 -10
l60 0 -19 -42 c-30 -70 -53 -164 -46 -192 9 -35 42 -34 86 3 l35 29 12 -29 c8
-21 19 -29 36 -29 27 0 104 52 115 78 5 11 9 3 12 -27 3 -25 11 -46 18 -49 7
-2 28 12 46 31 23 25 40 34 53 31 10 -3 38 1 61 9 l42 15 -6 -32 c-4 -23 -1
-36 11 -46 16 -13 18 -13 85 25 14 7 40 19 58 26 30 11 113 69 99 69 -4 0 -26
-13 -49 -29 -24 -16 -55 -32 -70 -35 -26 -6 -27 -5 -25 36 2 40 0 43 -27 46
-21 3 -37 -5 -61 -28 -25 -24 -45 -34 -80 -38 l-46 -5 7 39 c6 36 6 38 -9 25
-10 -7 -17 -25 -17 -40 0 -26 -41 -81 -60 -81 -13 0 -13 62 0 96 6 15 8 30 4
33 -4 3 -9 0 -12 -8 -9 -27 -82 -99 -112 -111 -56 -23 -77 12 -45 74 24 46 18
43 -49 -29 -36 -39 -69 -65 -77 -63 -21 7 -15 92 10 159 35 91 30 88 176 97
l130 7 -128 5 -129 5 27 39 c14 21 24 41 21 43 -3 3 -19 -16 -37 -41z m499
-220 c4 -35 -9 -50 -37 -41 -26 8 -26 19 -3 50 21 30 36 27 40 -9z m-37 -79
c-13 -13 -41 -1 -41 17 0 13 4 14 25 4 16 -7 22 -15 16 -21z"/>
<path d="M2543 2103 c-7 -3 -13 -12 -13 -21 0 -15 2 -15 17 1 18 18 16 27 -4
20z"/>
<path d="M1257 2074 c-12 -13 -8 -34 8 -34 18 0 19 -11 4 -44 -16 -34 -4 -76
22 -76 27 0 78 26 112 58 l27 26 -6 -30 c-4 -21 -1 -34 10 -44 17 -13 19 -13
86 25 14 7 40 19 58 26 30 11 113 69 99 69 -4 0 -26 -13 -49 -29 -24 -16 -55
-32 -70 -35 -26 -6 -27 -5 -25 36 2 41 1 43 -30 46 -26 3 -36 -3 -58 -32 -33
-44 -111 -96 -142 -96 -19 0 -23 5 -23 28 1 15 7 38 15 52 19 33 18 40 -4 40
-11 0 -21 5 -23 11 -2 5 -7 7 -11 3z m258 -55 c0 -28 -4 -35 -23 -37 -30 -5
-38 21 -15 52 24 33 38 28 38 -15z m-34 -72 c-13 -13 -41 -1 -41 17 0 13 4 14
25 4 16 -7 22 -15 16 -21z"/>
<path d="M3508 1963 c200 -2 524 -2 720 0 196 1 33 2 -363 2 -396 0 -557 -1
-357 -2z"/>
</g>
</svg>
